<svg width="58" height="58" viewBox="0 0 58 58" fill="none" xmlns="http://www.w3.org/2000/svg">
<g clip-path="url(#clip0_235_288024)">
<rect x="1" y="1" width="56" height="56" rx="28" fill="#9089F7"/>
<g clip-path="url(#clip1_235_288024)">
<path d="M22.4214 56.4883C23.9021 55.4423 26.3203 55.1234 31.1576 54.4856C31.1576 54.4856 33.5659 54.1677 37.3464 54.3462C39.5441 54.4512 39.8579 54.6309 40.0574 54.8912C41.3702 56.5956 38.8388 63.1269 34.4119 65.926C28.3555 69.7545 19.1583 66.3415 18.4801 62.5535C18.0503 60.1613 21.0019 57.492 22.4214 56.4883Z" fill="#1C1C1C"/>
<path d="M40.5426 42.5384C41.1748 43.6439 37.4825 45.7592 36.9863 50.8528C36.8671 52.0743 36.7671 53.3107 37.4945 54.3753C39.1313 56.7707 42.8819 55.1806 44.2137 56.8272C46.1919 59.2713 42.6063 68.5589 35.1952 71.6802C28.7729 74.3856 20.5682 71.9993 17.2584 66.856C15.6809 64.4038 14.6393 60.4312 16.2207 58.7049C17.7855 56.9978 20.6454 58.8851 23.7802 56.6178C24.1083 56.3802 26.3275 54.7286 26.4348 52.379C26.5069 50.7919 25.5708 50.2612 25.5374 49.1986C25.4121 45.0563 39.3825 40.5064 40.5426 42.5384Z" fill="#F8E1D7" stroke="black" stroke-width="0.811173" stroke-miterlimit="10"/>
<path d="M37.0286 46.5283C37.4279 44.9749 37.3392 43.5016 37.024 42.204C32.5395 43.0104 25.3607 46.1956 25.4538 49.1719C25.4869 50.2332 26.4225 50.7651 26.3508 52.3522C26.3201 52.9218 26.1761 53.4796 25.9273 53.9927C28.7304 55.2416 35.5906 52.1208 37.0286 46.5283Z" fill="#1C1C1C"/>
<path d="M13.5306 26.127C12.9371 28.605 12.5733 34.4302 13.2871 39.9813C13.4201 41.0136 13.5015 41.3434 13.5541 41.5394C14.937 46.6644 21.0476 50.1287 25.7111 50.6587C33.6131 51.5571 40.4068 44.5969 43.3133 39.096C48.3161 29.627 46.8747 14.9222 38.6804 11.0723C29.4924 6.75287 15.5141 17.8396 13.5306 26.127Z" fill="#F8E1D7" stroke="#1C1C1C" stroke-width="0.811173" stroke-miterlimit="10"/>
<path d="M23.3549 56.1454C22.3764 56.6072 21.3495 56.958 20.2933 57.1916C18.0007 57.6959 16.737 57.376 15.3788 57.4783C12.2436 57.715 9.99648 60.0998 8.25415 61.9486C7.70652 62.5293 3.02207 67.5813 3.648 70.8928C5.44844 80.4073 52.8173 84.4806 57.4502 72.5584C58.8992 68.8309 56.9387 61.5586 53.1629 59.3C52.1799 58.7115 49.9372 57.7836 48.2861 57.1856C46.472 56.5286 44.8774 56.0906 43.7312 55.7754C42.1009 55.3277 40.7023 54.9992 39.6371 54.7676C39.4129 55.6995 38.5058 58.9436 35.4577 60.8984C32.7295 62.6477 28.2611 63.3826 25.4992 60.8189C23.8059 59.244 23.4493 57.0721 23.3549 56.1454Z" fill="#E7CB64" stroke="#1C1C1C" stroke-width="0.811173" stroke-miterlimit="10"/>
<path d="M42.023 32.3206C42.0656 32.066 42.4217 30.139 44.1449 29.2422C45.7513 28.406 47.911 28.7956 48.6869 29.9005C50.418 32.3655 45.8733 39.2525 43.8111 38.773C43.0456 38.5952 42.2195 37.3081 42.023 32.3206Z" fill="#F8E1D7"/>
<path d="M44.9583 31.064C44.9857 31.0423 45.0133 31.0218 45.0414 31.0017C45.0586 30.9896 45.0375 31.0048 45.0353 31.0063L45.0619 30.989C45.0799 30.9778 45.0983 30.9674 45.1167 30.957C45.1789 30.9223 45.2436 30.8921 45.3102 30.8667L45.3325 30.8583L45.3397 30.8558L45.3775 30.8438C45.4133 30.8332 45.4494 30.8235 45.4856 30.8149C45.5587 30.798 45.6326 30.7853 45.7071 30.7767L45.7556 30.7715L45.7878 30.7691C45.785 30.7689 45.7564 30.7708 45.7788 30.7685C45.8164 30.7668 45.854 30.7651 45.8919 30.7646C45.9648 30.7639 46.0379 30.7665 46.1104 30.7724C46.1829 30.7783 46.2614 30.7875 46.3364 30.7997L46.3852 30.8086L46.4178 30.8144C46.4149 30.8142 46.3881 30.808 46.4096 30.8139C46.4473 30.8229 46.4855 30.8307 46.5227 30.8405C46.6704 30.8774 46.8142 30.928 46.9524 30.9918L46.9748 31.0023C46.9505 30.9896 47.0008 31.0143 46.9748 31.0023L47.0186 31.0253C47.0524 31.0436 47.0857 31.0631 47.1182 31.0833C47.1835 31.1233 47.2462 31.1673 47.3062 31.215L47.3454 31.2463L47.3582 31.2575L47.3653 31.2637C47.3932 31.2898 47.4208 31.3163 47.4474 31.344C47.4985 31.3982 47.546 31.4556 47.5896 31.5161C47.6104 31.5446 47.5792 31.4989 47.5983 31.5286C47.608 31.5441 47.6177 31.5595 47.627 31.5754C47.6455 31.6067 47.6641 31.6388 47.6797 31.6712C47.6954 31.7035 47.7092 31.7325 47.7224 31.7638C47.7295 31.7808 47.7363 31.7977 47.7426 31.8146L47.7507 31.837C47.7449 31.8181 47.7447 31.8209 47.7507 31.837C47.7753 31.9138 47.794 31.9923 47.8065 32.072C47.8097 32.0924 47.812 32.1136 47.8145 32.1335C47.8169 32.1535 47.8174 32.1915 47.8165 32.1535C47.8176 32.1948 47.819 32.2361 47.8176 32.2773C47.8162 32.3184 47.8127 32.3541 47.8078 32.3921C47.8065 32.4127 47.8015 32.433 47.7982 32.4526C47.7949 32.4722 47.7988 32.4435 47.7989 32.4415C47.7962 32.4512 47.7943 32.4614 47.7917 32.4711C47.7719 32.551 47.7436 32.6286 47.7073 32.7025C47.6643 32.7896 47.7352 32.9105 47.8216 32.9379C47.9274 32.9694 48.011 32.9171 48.0565 32.8235C48.3514 32.2236 48.1207 31.4643 47.6476 31.0265C47.3938 30.7958 47.0917 30.6248 46.7635 30.526C46.4452 30.425 46.1112 30.3832 45.7779 30.4026C45.3917 30.4285 45.0189 30.5416 44.7141 30.7881C44.6776 30.8207 44.6554 30.8664 44.6523 30.9153C44.6492 30.9642 44.6654 31.0123 44.6974 31.0494C44.7303 31.0854 44.7758 31.1072 44.8244 31.1103C44.8731 31.1134 44.921 31.0976 44.9582 31.0661L44.9583 31.064Z" fill="#1C1C1C"/>
<path d="M47.0735 30.7929C46.6813 30.8197 46.3142 30.9953 46.0469 31.284C45.7499 31.5949 45.5689 31.9846 45.4522 32.3942C45.3811 32.6425 45.3316 32.8967 45.2804 33.1495C45.2611 33.2452 45.3622 33.3445 45.4531 33.3462C45.5642 33.3484 45.629 33.275 45.6495 33.1732C45.6434 33.2033 45.6495 33.1732 45.6499 33.1675L45.6571 33.1312L45.6717 33.0583C45.6824 33.0066 45.6931 32.9549 45.7042 32.9032C45.7262 32.8032 45.7495 32.7036 45.7756 32.6046C45.8256 32.4074 45.893 32.215 45.977 32.0298C45.9818 32.0185 45.9875 32.0073 45.9927 31.9961C45.993 31.9924 46.0083 31.965 45.9956 31.9897C46.0069 31.9678 46.0186 31.9462 46.0303 31.9243C46.053 31.8845 46.0765 31.8448 46.1017 31.8051C46.1477 31.7341 46.1983 31.6661 46.2531 31.6016C46.258 31.5957 46.2773 31.5763 46.2531 31.6016L46.2739 31.579C46.288 31.5638 46.3021 31.549 46.3179 31.5344C46.3469 31.5057 46.3771 31.4775 46.4081 31.4507C46.439 31.4238 46.4707 31.3986 46.5035 31.3743C46.5118 31.3678 46.5595 31.3366 46.5264 31.3572C46.5475 31.3433 46.5694 31.3294 46.5908 31.3168C46.6295 31.2935 46.6695 31.2724 46.7105 31.2535C46.7309 31.2441 46.7529 31.2352 46.7724 31.2265C46.7817 31.223 46.7914 31.2195 46.8003 31.2155C46.821 31.207 46.7709 31.2248 46.8044 31.2158C46.8472 31.2026 46.8906 31.1916 46.9345 31.1829C46.9591 31.1779 46.9841 31.1737 47.009 31.1703L47.0389 31.1669C47.0492 31.1675 47.0952 31.1631 47.0496 31.1676C47.1459 31.1622 47.2439 31.1029 47.2459 30.9945C47.248 30.9039 47.1765 30.7921 47.0732 30.7979L47.0735 30.7929Z" fill="#1C1C1C"/>
<path d="M28.9582 30.6033C29.3996 30.0759 29.955 29.6562 30.5824 29.3758C31.2098 29.0955 31.8927 28.962 32.5793 28.9855C33.4008 29.0158 34.2157 29.2203 35.0026 29.451C35.7929 29.6831 36.5658 29.9707 37.3158 30.3116C37.6051 30.4428 37.7639 29.9749 37.477 29.8447C36.2329 29.2811 34.9167 28.8428 33.5709 28.6019C32.346 28.3827 31.1121 28.4991 30.0114 29.1075C29.4516 29.4181 28.9555 29.8321 28.5493 30.3275C28.3467 30.5727 28.7578 30.8462 28.9582 30.6033Z" fill="#1C1C1C"/>
<path d="M14.2948 31.3676C14.9106 30.9043 15.539 30.4199 16.2113 30.0402C16.8558 29.6765 17.5651 29.717 18.2751 29.8232C19.6572 30.0297 20.9582 30.6498 22.0123 31.5638C22.2522 31.7714 22.5252 31.3595 22.288 31.1537C21.401 30.3862 20.3532 29.8282 19.222 29.5209C18.6506 29.3626 18.0624 29.2731 17.4699 29.2543C16.8843 29.2324 16.3059 29.3899 15.8119 29.7057C15.1768 30.1026 14.567 30.5469 13.9689 30.9966C13.7147 31.1865 14.0422 31.5577 14.2948 31.3676Z" fill="#1C1C1C"/>
<path d="M33.994 29.8312C33.0182 29.4844 31.6393 30.0007 31.3641 31.1372C31.089 32.2736 32.0731 33.3617 33.0971 33.4315C34.3372 33.5155 35.3747 32.0844 35.0869 30.9832C34.9506 30.4609 34.5183 30.0166 33.994 29.8312Z" fill="#1C1C1C"/>
<path d="M19.0342 30.5492C18.1089 30.2102 17.0887 30.7132 16.7276 31.4931C16.2722 32.4795 16.9412 33.7755 18.0358 33.978C18.9718 34.1502 19.9572 33.471 20.145 32.5417C20.3021 31.7578 19.8834 30.8614 19.0342 30.5492Z" fill="#1C1C1C"/>
<path d="M21.8937 42.3339C22.054 42.0806 22.6494 42.3696 24.0235 42.508C25.1998 42.6165 26.3851 42.5725 27.55 42.3768C28.5047 42.212 29.2327 41.9654 30.1909 41.6412C32.0909 40.9974 32.6196 40.5842 33.0049 40.8683C33.4984 41.232 33.3768 42.4596 32.9102 43.3115C32.0866 44.8163 30.1921 45.1473 28.9751 45.3601C28.1644 45.5016 25.5671 45.9554 23.4709 44.4557C22.5161 43.7737 21.6696 42.6899 21.8937 42.3339Z" fill="black"/>
<path d="M24.4147 35.821C23.615 36.094 23.2018 37.0525 23.4793 37.8325C23.7634 38.6307 24.6893 39.0184 25.4491 38.5775" stroke="black" stroke-width="0.540782" stroke-miterlimit="10"/>
<path d="M27.0652 43.8968C26.5879 44.2786 25.7072 44.9815 25.8616 45.4641C27.2275 45.6998 28.4583 45.485 28.9716 45.3954C30.1887 45.1826 32.0831 44.8524 32.9068 43.3469C33.0222 43.1335 33.1146 42.9083 33.1823 42.6753C32.8063 41.8254 29.3286 42.0884 27.0652 43.8968Z" fill="#EC949F"/>
<path d="M44.5217 37.3083C44.9665 37.3368 45.3502 36.9987 45.3787 36.5531C45.4071 36.1076 45.0696 35.7232 44.6248 35.6947C44.1799 35.6662 43.7963 36.0043 43.7678 36.4499C43.7393 36.8955 44.0769 37.2798 44.5217 37.3083Z" fill="white"/>
<path d="M28.2857 8.41969C26.0235 8.70158 24.2497 9.47634 23.1917 10.0219C22.2072 10.8476 21.2795 11.958 21.0835 13.3771C15.9978 11.8574 9.67695 25.5973 11.4273 27.5871C12.418 28.7136 13.3297 27.5295 14.1045 26.9828C17.7525 24.4085 21.11 20.3624 22.219 17.3288C24.9316 21.4575 31.9229 25.4761 38.6605 26.5363C38.9458 26.581 39.6938 26.6986 40.6854 26.8051C40.1043 28.8129 39.957 31.4033 40.3624 33.5779C40.7303 35.5529 41.5468 37.1504 41.8606 37.0723C42.3626 36.9478 40.8324 32.7166 42.7272 30.2395C44.2609 28.2342 46.8292 28.9573 47.1995 27.5873C47.2663 27.3408 47.2531 27.0574 47.1763 26.758C48.6905 26.4698 49.9216 25.8896 50.3508 24.8166C52.1467 20.3359 40.0156 6.95708 28.2857 8.41969Z" fill="#4F4F4F"/>
<path d="M22.2243 17.0936C20.9755 19.5395 19.3785 21.7905 17.4835 23.7762C15.9187 25.4165 14.5126 26.6942 13.1468 27.901" stroke="#1C1C1C" stroke-width="0.811173" stroke-miterlimit="10"/>
<path d="M22.072 17.2358C22.4984 17.8044 22.9531 18.351 23.4344 18.8737C25.7622 21.4017 28.0865 22.6755 29.5072 23.4385C34.0178 25.8593 38.6439 26.5614 40.825 26.7969" stroke="#1C1C1C" stroke-width="0.811173" stroke-miterlimit="10"/>
<path d="M40.7234 26.5914C39.7724 29.7362 40.0717 32.0694 40.3514 33.3186C40.7642 35.1633 41.6723 37.0413 41.8968 36.9691C42.0069 36.9349 41.8992 36.3386 41.8382 35.1917C41.8373 35.1768 41.8362 35.1557 41.8349 35.1284C41.7826 34.1161 41.7188 32.9175 41.8616 32.1314C42.1687 30.4368 43.6599 29.3931 43.8424 29.2691C44.5328 28.8055 45.3302 28.5267 46.1586 28.4594" stroke="#1C1C1C" stroke-width="0.410937" stroke-miterlimit="10"/>
<path d="M16.9586 38.3747C20.2364 38.5848 23.0636 36.0931 23.2733 32.8093C23.4831 29.5255 20.9959 26.6931 17.7181 26.483C14.4404 26.2729 11.6132 28.7646 11.4034 32.0484C11.1937 35.3322 13.6808 38.1646 16.9586 38.3747Z" stroke="white" stroke-width="0.410937" stroke-miterlimit="10"/>
<path d="M36.223 35.6184C38.689 33.445 38.9295 29.6803 36.7601 27.2097C34.5906 24.7391 30.8328 24.4982 28.3668 26.6716C25.9007 28.845 25.6603 32.6097 27.8297 35.0803C29.9991 37.5509 33.7569 37.7918 36.223 35.6184Z" stroke="white" stroke-width="0.410937" stroke-miterlimit="10"/>
<path d="M37.6732 28.7551L44.1775 27.9903" stroke="white" stroke-width="0.410937" stroke-miterlimit="10"/>
<path d="M23.1206 31.0192C23.1672 30.8819 23.415 30.1929 24.1098 29.8864C24.8375 29.5676 25.7576 29.8015 26.3633 30.4899" stroke="white" stroke-width="0.410937" stroke-miterlimit="10"/>
<path d="M45.7417 28.522C47.4527 28.5047 48.1753 29.0979 48.48 29.4322C50.5373 31.702 46.7497 36.9971 45.5876 38.1105C45.3187 38.368 44.7236 38.9382 44.0286 38.8355C43.7808 38.794 43.5496 38.6838 43.3613 38.5172" stroke="#1C1C1C" stroke-width="0.811173" stroke-miterlimit="10"/>
<path d="M27.8801 24.8779C30.5786 24.0197 33.4392 24.2196 36.1992 24.642C36.9983 24.7646 37.7942 24.9059 38.5895 25.0493C38.9013 25.1056 38.93 24.612 38.621 24.5563C35.8328 24.0538 32.9849 23.5582 30.146 23.8893C29.3429 23.9814 28.5506 24.1503 27.7797 24.3938C27.4804 24.4893 27.5779 24.974 27.8801 24.8775L27.8801 24.8779Z" fill="#1C1C1C"/>
<path d="M13.1563 25.8756C15.4715 24.9553 17.9987 24.7069 20.4483 25.1588C20.7601 25.2159 20.7887 24.7224 20.4798 24.6659C17.9436 24.2075 15.3297 24.4738 12.9374 25.4342C12.6417 25.5522 12.8651 25.9934 13.1587 25.8757L13.1563 25.8756Z" fill="#1C1C1C"/>
</g>
<g clip-path="url(#clip2_235_288024)">
<path d="M21.4402 8.65526C28.1951 5.48985 36.3123 6.65222 42.154 10.5904C43.2153 11.3058 46.3342 13.5507 48.765 17.6918C52.1703 23.493 51.4692 28.3215 51.9844 35.138C53.3297 52.9495 61.0177 58.4095 57.1579 64.8519C56.4946 65.9584 54.9665 67.9688 46.0327 70.694C35.897 73.7854 12.6784 80.8678 2.48351 69.3591C1.87702 68.6742 -1.03731 65.2663 -1.74145 60.2251C-2.68039 53.5069 1.3038 51.0336 5.25632 40.8233C10.2012 28.0481 7.39768 23.0501 13.6605 15.1985C15.1268 13.3603 17.4336 10.5325 21.4402 8.65526Z" fill="#4F4F4F" stroke="#1C1C1C" stroke-width="0.7333" stroke-miterlimit="10"/>
<path d="M22.5197 55.7819C23.9876 54.7449 26.3849 54.4288 31.1804 53.7965C31.1804 53.7965 33.5679 53.4813 37.3158 53.6582C39.4945 53.7623 39.8056 53.9405 40.0034 54.1985C41.3048 55.8882 38.7953 62.3632 34.4067 65.1381C28.4026 68.9335 19.2848 65.55 18.6124 61.7947C18.1863 59.4231 21.1125 56.7769 22.5197 55.7819Z" fill="#1C1C1C"/>
<path d="M40.4836 41.9508C41.1103 43.0468 37.4498 45.1438 36.9579 50.1935C36.8397 51.4044 36.7406 52.6301 37.4618 53.6856C39.0844 56.0603 42.8026 54.4839 44.1229 56.1163C46.084 58.5393 42.5294 67.7467 35.1823 70.8411C28.8155 73.5231 20.6816 71.1574 17.4004 66.0585C15.8365 63.6274 14.8039 59.6892 16.3716 57.9778C17.923 56.2854 20.7582 58.1564 23.8658 55.9087C24.1911 55.6731 26.3912 54.0358 26.4975 51.7065C26.569 50.1331 25.641 49.607 25.6079 48.5535C25.4836 44.447 39.3334 39.9364 40.4836 41.9508Z" fill="#FFE1D3" stroke="black" stroke-width="0.7333" stroke-miterlimit="10"/>
<path d="M37.0807 46.0175C37.4767 44.4776 37.3887 43.017 37.0762 41.7306C32.6304 42.53 25.5136 45.6878 25.6055 48.6383C25.6387 49.6905 26.5659 50.2177 26.4952 51.7912C26.4645 52.3559 26.3218 52.9088 26.0754 53.4175C28.8555 54.6557 35.6544 51.5618 37.0807 46.0175Z" fill="#1C1C1C"/>
<path d="M13.7049 25.6811C13.1166 28.1378 12.7559 33.9126 13.4636 39.4158C13.5954 40.4392 13.6761 40.7662 13.7282 40.9605C15.0992 46.0412 21.157 49.4756 25.7802 50.0009C33.614 50.8916 40.349 43.9915 43.2304 38.5381C48.19 29.1509 46.7611 14.5731 38.6375 10.7564C29.5289 6.47427 15.6713 17.4653 13.7049 25.6811Z" fill="#FFE1D3" stroke="#1C1C1C" stroke-width="0.7333" stroke-miterlimit="10"/>
<path d="M23.4451 55.4389C22.475 55.8967 21.4569 56.2445 20.4098 56.476C18.1371 56.976 16.8843 56.6589 15.5378 56.7603C12.4297 56.9949 10.202 59.3591 8.47468 61.192C7.93179 61.7677 3.28778 66.776 3.90831 70.0589C5.6932 79.4913 52.6531 83.5294 57.246 71.7101C58.6824 68.0148 56.7388 60.8054 52.9957 58.5662C52.0211 57.9828 49.7978 57.0629 48.161 56.4701C46.3626 55.8188 44.7817 55.3846 43.6453 55.0721C42.0292 54.6283 40.6426 54.3026 39.5867 54.073C39.3644 54.9968 38.4651 58.2129 35.4434 60.1509C32.7387 61.8851 28.3089 62.6135 25.5708 60.072C23.8921 58.5107 23.5386 56.3576 23.4451 55.4389Z" fill="#E7CB64" stroke="#1C1C1C" stroke-width="0.7333" stroke-miterlimit="10"/>
<path d="M41.951 31.8231C41.9933 31.5707 42.3463 29.6604 44.0545 28.7713C45.6471 27.9423 47.7881 28.3286 48.5573 29.4239C50.2735 31.8676 45.768 38.6951 43.7237 38.2197C42.9647 38.0435 42.1458 36.7675 41.951 31.8231Z" fill="#FFE1D3"/>
<path d="M44.9017 30.6213C44.9288 30.5997 44.9562 30.5798 44.984 30.5595C45.0118 30.5392 44.9644 30.573 44.9648 30.5726C44.974 30.5676 44.983 30.562 44.9916 30.5559C45.0094 30.5448 45.0273 30.5341 45.0459 30.5238C45.1076 30.4895 45.1717 30.4595 45.2377 30.4343L45.2594 30.4263C45.2218 30.4402 45.2803 30.4198 45.2894 30.4172C45.3247 30.4063 45.3604 30.3968 45.3966 30.3885C45.4689 30.3716 45.5423 30.3589 45.6161 30.3506L45.6642 30.3455C45.6744 30.3462 45.6855 30.3444 45.6958 30.3426C45.6958 30.3426 45.6425 30.3458 45.6708 30.3447C45.708 30.343 45.7453 30.3413 45.7829 30.3408C45.8552 30.3402 45.9276 30.3428 45.9995 30.3486C46.0714 30.3544 46.1492 30.3635 46.2235 30.3756L46.2719 30.3845C46.2828 30.3857 46.2936 30.3876 46.3042 30.3902C46.3042 30.3902 46.253 30.3796 46.28 30.3858C46.3178 30.3944 46.3553 30.4025 46.3926 30.4122C46.5387 30.449 46.6812 30.4992 46.8181 30.5622L46.8403 30.573C46.8704 30.5868 46.798 30.5511 46.8276 30.5665L46.8707 30.5893C46.9042 30.6074 46.9373 30.6263 46.9699 30.6463C47.0346 30.6861 47.0968 30.7299 47.1562 30.7773L47.1951 30.808C47.2415 30.8474 47.1712 30.7852 47.2032 30.8151C47.2352 30.8449 47.2582 30.8672 47.2842 30.8947C47.3351 30.949 47.3823 31.0067 47.4255 31.0673C47.401 31.0289 47.4517 31.1037 47.4255 31.0673L47.4543 31.1133C47.4728 31.1443 47.4911 31.1766 47.5062 31.2086C47.5213 31.2407 47.5354 31.2694 47.5485 31.3005C47.5556 31.3173 47.5623 31.3341 47.569 31.3509C47.5885 31.4032 47.5593 31.3175 47.571 31.3567C47.5954 31.4328 47.6139 31.5107 47.6264 31.5897C47.6296 31.6099 47.6323 31.6309 47.6343 31.6507L47.6365 31.6737C47.6404 31.7088 47.6327 31.6629 47.6353 31.654C47.6335 31.6744 47.6341 31.6949 47.6371 31.7151C47.6358 31.7354 47.6374 31.756 47.6365 31.776C47.6341 31.8143 47.6316 31.8521 47.6268 31.8898C47.6255 31.9102 47.6205 31.9303 47.6172 31.9498C47.6126 31.9773 47.6232 31.9211 47.6226 31.9227C47.6198 31.9325 47.6175 31.9425 47.6158 31.9525C47.5961 32.0316 47.5679 32.1084 47.5318 32.1815C47.5212 32.2123 47.5168 32.245 47.5189 32.2776C47.521 32.3101 47.5296 32.342 47.5442 32.3712C47.5733 32.428 47.6229 32.4716 47.683 32.4929C47.7138 32.5034 47.7464 32.5077 47.7789 32.5055C47.8114 32.5033 47.8432 32.4947 47.8724 32.4801C47.927 32.4486 47.9698 32.3999 47.9939 32.3415C48.2947 31.7282 48.0597 30.9468 47.5764 30.4996C47.3168 30.2619 47.0072 30.0855 46.6706 29.9835C46.3498 29.8818 46.0133 29.8393 45.6774 29.8581C45.2777 29.8848 44.8928 29.9996 44.5786 30.2546C44.53 30.2975 44.5003 30.358 44.4962 30.4227C44.4921 30.4875 44.5138 30.5512 44.5565 30.6C44.6 30.6476 44.6602 30.6764 44.7244 30.6805C44.7887 30.6847 44.852 30.6637 44.9012 30.6221L44.9017 30.6213Z" fill="#1C1C1C"/>
<path d="M46.9623 30.2435C46.7526 30.2526 46.5473 30.3063 46.3599 30.4012C46.1887 30.4896 46.0334 30.606 45.9003 30.7454C45.5985 31.0606 45.4121 31.4551 45.2932 31.8719C45.2216 32.1237 45.1717 32.3806 45.1218 32.6379C45.1197 32.67 45.1239 32.7022 45.1342 32.7327C45.1445 32.7632 45.1607 32.7913 45.1819 32.8155C45.2031 32.8397 45.2288 32.8594 45.2577 32.8736C45.2865 32.8878 45.3178 32.8962 45.3499 32.8982C45.382 32.9003 45.4141 32.896 45.4445 32.8856C45.4749 32.8752 45.503 32.8589 45.5271 32.8376C45.5723 32.7921 45.6014 32.7329 45.6097 32.6691C45.5965 32.7341 45.6102 32.6602 45.6146 32.6433C45.6194 32.6195 45.6246 32.5953 45.6294 32.571C45.64 32.5202 45.6506 32.469 45.6617 32.4177C45.6831 32.3185 45.7061 32.2198 45.7324 32.1217C45.782 31.9262 45.8488 31.7355 45.9321 31.5518C45.9392 31.5363 45.9659 31.4693 45.9439 31.5264C45.954 31.5041 45.9655 31.4824 45.9783 31.4615C46.0004 31.4221 46.0241 31.3827 46.0491 31.3434C46.0946 31.2729 46.1447 31.2055 46.1991 31.1416C46.2204 31.116 46.2018 31.1516 46.1881 31.154C46.1957 31.1472 46.2026 31.1397 46.2088 31.1316C46.2228 31.1165 46.2368 31.1019 46.2524 31.0874C46.2812 31.059 46.3111 31.031 46.3418 31.0044C46.3725 30.9777 46.4039 30.9527 46.4365 30.9286L46.4608 30.911C46.4938 30.8865 46.4506 30.9177 46.4464 30.9203C46.468 30.9078 46.4889 30.8932 46.5098 30.8802C46.5484 30.8573 46.5881 30.8366 46.6289 30.8175C46.6491 30.8082 46.6709 30.7993 46.6902 30.7912L46.7178 30.7803C46.7459 30.769 46.6653 30.7969 46.7069 30.7841C46.7494 30.7709 46.7924 30.76 46.836 30.7514C46.8604 30.7465 46.8851 30.7423 46.9094 30.7394C46.9337 30.7364 47.0141 30.731 46.9337 30.7356C46.9982 30.7375 47.0612 30.7159 47.1111 30.675C47.1594 30.6319 47.1889 30.5716 47.1933 30.5069C47.1956 30.3873 47.1018 30.2393 46.965 30.2469L46.9623 30.2435Z" fill="#1C1C1C"/>
<path d="M29.101 30.1894C29.9447 29.1676 31.2628 28.5901 32.5813 28.639C33.3863 28.669 34.1814 28.8684 34.9514 29.094C35.7349 29.3242 36.5012 29.6095 37.2447 29.9476C37.4252 30.0291 37.6509 29.8955 37.711 29.7203C37.7805 29.5203 37.6654 29.335 37.4846 29.2531C36.2406 28.6892 34.9254 28.2553 33.58 28.0144C32.3467 27.7935 31.0965 27.9157 29.9884 28.5284C29.4157 28.8467 28.9082 29.2704 28.4926 29.7774C28.3665 29.9305 28.4394 30.1829 28.5919 30.2876C28.7699 30.4078 28.9742 30.3411 29.1011 30.1882L29.101 30.1894Z" fill="#1C1C1C"/>
<path d="M14.5432 30.9685C15.1455 30.5164 15.7595 30.0414 16.4171 29.6701C17.0374 29.3202 17.7174 29.3658 18.4007 29.4677C19.7499 29.6691 21.0165 30.2811 22.0469 31.1735C22.1965 31.3033 22.4546 31.2246 22.5557 31.0741C22.6774 30.893 22.6069 30.6942 22.4564 30.5639C21.5683 29.7964 20.5196 29.2384 19.3876 28.9311C18.8107 28.7702 18.2166 28.6787 17.6181 28.6586C17.0158 28.6352 16.4207 28.7957 15.9115 29.1188C15.2738 29.5175 14.66 29.9639 14.0589 30.4161C13.9002 30.5351 13.9021 30.7937 14.0258 30.9345C14.165 31.0931 14.3834 31.0871 14.5432 30.9677L14.5432 30.9685Z" fill="#1C1C1C"/>
<path d="M33.9921 29.3521C33.0247 29.0083 31.6577 29.5202 31.3849 30.6468C31.1121 31.7735 32.0877 32.8522 33.1029 32.9214C34.3323 33.0047 35.3609 31.5858 35.0755 30.4941C34.9404 29.9764 34.5118 29.5359 33.9921 29.3521Z" fill="#1C1C1C"/>
<path d="M19.1613 30.0663C18.244 29.7303 17.2325 30.2289 16.8745 31.0021C16.4231 31.9799 17.0864 33.2647 18.1715 33.4656C19.0994 33.6363 20.0763 32.9628 20.2625 32.0416C20.4182 31.2645 20.0031 30.3759 19.1613 30.0663Z" fill="#1C1C1C"/>
<path d="M21.7566 41.5988L21.757 41.5982C21.865 41.4275 22.0389 41.3781 22.1834 41.3689C22.3196 41.3602 22.4812 41.3829 22.6479 41.4112C22.7275 41.4248 22.8133 41.4405 22.9062 41.4576C23.2216 41.5155 23.6189 41.5884 24.1347 41.6404C25.2759 41.7457 26.4258 41.7029 27.5561 41.5132C28.4775 41.354 29.1796 41.1166 30.1308 40.7948L21.7566 41.5988ZM21.7566 41.5988C21.6247 41.8084 21.6816 42.058 21.7497 42.2341C21.8251 42.4291 21.9555 42.6413 22.1139 42.8508C22.4324 43.272 22.8998 43.7294 23.3953 44.0834C25.5695 45.6387 28.2428 45.172 29.0538 45.0304L29.0651 45.0284L29.0652 45.0284M21.7566 41.5988L29.0652 45.0284M29.0652 45.0284L29.0755 45.0266C29.674 44.9219 30.4697 44.7828 31.2202 44.4765C31.9779 44.1672 32.7155 43.6774 33.1658 42.8548C33.417 42.3959 33.5746 41.8398 33.6039 41.3429C33.6186 41.094 33.6018 40.8484 33.5405 40.6316C33.4796 40.4159 33.3684 40.2083 33.1793 40.0689M29.0652 45.0284L33.1793 40.0689M33.1793 40.0689C32.8545 39.8294 32.4853 39.926 32.085 40.0681M33.1793 40.0689L32.085 40.0681M32.085 40.0681C31.9333 40.1219 31.756 40.1911 31.5524 40.2706M32.085 40.0681L31.5524 40.2706M31.5524 40.2706C31.4713 40.3023 31.3859 40.3357 31.2964 40.3703M31.5524 40.2706L31.2964 40.3703M31.2964 40.3703C30.9786 40.4932 30.5967 40.6369 30.1309 40.7947L31.2964 40.3703Z" fill="black" stroke="black" stroke-width="0.565992"/>
<path d="M24.495 35.2902C23.7022 35.5608 23.2925 36.5111 23.5676 37.2844C23.8493 38.0757 24.7672 38.46 25.5204 38.0229" stroke="black" stroke-width="0.7333" stroke-miterlimit="10"/>
<path d="M27.123 43.2974C26.6498 43.676 25.7767 44.3728 25.9298 44.8513C27.2839 45.0849 28.504 44.8719 29.013 44.7831C30.2195 44.5722 32.0976 44.2448 32.9141 42.7523C33.0286 42.5407 33.1202 42.3175 33.1873 42.0865C32.8146 41.2439 29.3669 41.5046 27.123 43.2974Z" fill="#EC949F"/>
<path d="M44.4293 36.7651C44.8703 36.7934 45.2507 36.4582 45.2789 36.0165C45.3071 35.5747 44.9725 35.1937 44.5315 35.1654C44.0905 35.1372 43.7102 35.4724 43.6819 35.9141C43.6537 36.3558 43.9883 36.7368 44.4293 36.7651Z" fill="white"/>
<path d="M28.3329 8.1259C26.0901 8.40535 24.3316 9.17342 23.2828 9.71424C22.3068 10.5329 21.3871 11.6336 21.1928 13.0405C9.39212 25.2556 11.972 25.3169 12.56 25.9974C13.2147 26.7571 12.6502 27.6436 14.274 26.5295C18.9523 23.3176 21.2866 19.1565 22.3185 16.9581C25.0077 21.0512 31.9386 25.0351 38.618 26.086C38.9009 26.1303 39.6424 26.247 40.6255 26.3525C40.0494 28.343 39.9033 30.911 40.3052 33.0668C40.6699 35.0248 41.4794 36.6085 41.7905 36.5311C42.2881 36.4076 40.7711 32.213 42.6496 29.7573C44.1701 27.7693 46.7162 28.4862 47.0833 27.128C47.1495 26.8836 47.1365 26.6027 47.0603 26.3058C48.5614 26.0201 49.7819 25.4449 50.2073 24.3812C51.9878 19.9392 39.9614 6.67591 28.3329 8.1259Z" fill="#4F4F4F"/>
<path d="M22.3238 16.7242C21.0858 19.149 19.5026 21.3806 17.6239 23.3491C16.0727 24.9753 14.6787 26.2419 13.3247 27.4383" stroke="black" stroke-width="0.7333" stroke-miterlimit="10"/>
<path d="M40.7635 26.3443C38.6013 26.1108 34.0151 25.4148 29.5435 23.0149C28.135 22.2589 25.8308 20.9961 23.5231 18.4899C23.046 17.9717 22.5952 17.4298 22.1725 16.8662" stroke="#1C1C1C" stroke-width="0.7333" stroke-miterlimit="10"/>
<path d="M40.6625 26.1405C39.7197 29.2582 40.0165 31.5712 40.2937 32.8096C40.703 34.6383 41.6033 36.5002 41.8258 36.4286C41.9349 36.3947 41.8282 35.8035 41.7677 34.6665C41.7668 34.6517 41.7657 34.6308 41.7644 34.6037C41.7126 33.6002 41.6493 32.4119 41.7909 31.6326C42.0954 29.9527 43.5737 28.918 43.7546 28.7951C44.439 28.3354 45.2295 28.0591 46.0508 27.9924" stroke="#1C1C1C" stroke-width="0.7333" stroke-miterlimit="10"/>
<path d="M17.1034 37.8234C20.3528 38.0317 23.1556 35.5615 23.3635 32.3061C23.5715 29.0507 21.1058 26.2427 17.8563 26.0344C14.6069 25.8261 11.8041 28.2963 11.5962 31.5517C11.3882 34.8072 13.8539 37.6151 17.1034 37.8234Z" stroke="white" stroke-width="0.73296" stroke-miterlimit="10"/>
<path d="M36.2018 35.0898C38.6465 32.9351 38.8849 29.2029 36.7342 26.7537C34.5835 24.3044 30.8582 24.0656 28.4134 26.2203C25.9687 28.3749 25.7303 32.1071 27.881 34.5563C30.0317 37.0056 33.757 37.2444 36.2018 35.0898Z" stroke="white" stroke-width="0.73296" stroke-miterlimit="10"/>
<path d="M37.6395 28.2888L44.0875 27.5307" stroke="white" stroke-width="0.73296" stroke-miterlimit="10"/>
<path d="M23.2131 30.5317C23.2594 30.3956 23.505 29.7125 24.1938 29.4087C24.9153 29.0926 25.8274 29.3245 26.4279 30.007" stroke="white" stroke-width="0.73296" stroke-miterlimit="10"/>
<path d="M45.6382 28.0551C47.3344 28.0379 48.0507 28.626 48.3528 28.9574C50.3923 31.2076 46.6374 36.4569 45.4853 37.5607C45.2188 37.816 44.6288 38.3813 43.9398 38.2795C43.6942 38.2384 43.465 38.1291 43.2783 37.9639" stroke="#1C1C1C" stroke-width="0.7333" stroke-miterlimit="10"/>
<path d="M27.9563 24.5643C30.6227 23.7158 33.4459 23.9152 36.1711 24.3324C36.9633 24.4539 37.7524 24.594 38.5408 24.7362C38.7357 24.7716 38.9185 24.5752 38.9301 24.3931C38.9439 24.1765 38.7834 24.0386 38.5877 24.0031C35.811 23.5029 32.9802 23.0148 30.153 23.3442C29.3568 23.4357 28.5712 23.6037 27.8071 23.8457C27.6183 23.9055 27.4797 24.07 27.5226 24.2801C27.5597 24.4591 27.7666 24.6253 27.9562 24.5651L27.9563 24.5643Z" fill="#1C1C1C"/>
<path d="M13.3874 25.5431C15.654 24.6351 18.154 24.4048 20.5533 24.8453C20.7485 24.8811 20.9309 24.6839 20.9425 24.5022C20.9564 24.2848 20.7958 24.1481 20.6001 24.1122C18.0718 23.648 15.443 23.9317 13.0588 24.8866C12.8749 24.9603 12.8118 25.213 12.8954 25.3799C12.9902 25.5696 13.2031 25.6172 13.3874 25.5431Z" fill="#1C1C1C"/>
</g>
</g>
<rect x="0.78125" y="0.78125" width="56.4375" height="56.4375" rx="28.2188" stroke="white" stroke-width="0.4375"/>
<defs>
<clipPath id="clip0_235_288024">
<rect x="1" y="1" width="56" height="56" rx="28" fill="white"/>
</clipPath>
<clipPath id="clip1_235_288024">
<rect width="62.3446" height="72.9337" fill="white" transform="matrix(0.997951 0.063976 -0.0637425 0.997966 -0.184326 4.98584)"/>
</clipPath>
<clipPath id="clip2_235_288024">
<rect width="62.1818" height="72.6712" fill="white" transform="matrix(0.997951 0.063976 -0.0637425 0.997966 -0.0825195 4.50439)"/>
</clipPath>
</defs>
</svg>
