<svg xmlns="http://www.w3.org/2000/svg" width="119" height="20" viewBox="0 0 119 20" fill="none">
  <path d="M77.0841 2.63449V12.2662C77.0841 13.367 77.9883 14.2515 79.1087 14.2515C80.2291 14.2515 81.1333 13.367 81.1333 12.2662V2.63449C81.1333 1.53372 80.2291 0.649176 79.1087 0.649176C77.9883 0.649176 77.0841 1.53372 77.0841 2.63449ZM41.604 10.3005H36.0216L39.2256 6.93927L39.2452 6.91961L39.2649 6.89996C40.1888 5.75988 42.3117 4.20701 41.4271 2.0841C40.916 0.845742 39.4811 0.57055 36.9061 0.649176H30.9109V4.50186H36.2378L32.4441 8.25626C31.2057 9.57325 30.046 10.674 30.4391 12.5414C30.675 13.6815 31.3433 13.937 33.938 13.937H41.604V10.3005ZM103.955 10.3005H98.3721L101.576 6.93927L101.596 6.91961L101.615 6.89996C102.539 5.75988 104.662 4.20701 103.778 2.0841C103.267 0.845742 101.832 0.57055 99.2567 0.649176H93.2614V4.50186H98.5884L94.7946 8.25626C93.5563 9.57325 92.3965 10.674 92.7897 12.5414C93.0256 13.6815 93.6939 13.937 96.2885 13.937H103.955V10.3005ZM14.7139 2.59518V12.2269C14.7139 13.3276 15.6181 14.2122 16.7385 14.2122C17.8589 14.2122 18.7631 13.3276 18.7631 12.2269V2.59518C18.7631 1.49441 17.8589 0.609863 16.7385 0.609863C15.6181 0.609863 14.7139 1.51407 14.7139 2.59518Z" fill="#9AA4B2"/>
  <path d="M110.205 0.511777C107.787 0.433151 104.131 2.41846 103.6 6.36943C103.404 9.61276 103.797 10.9691 105.369 12.6202C107.021 14.35 112.387 14.8611 114.097 12.3057C114.097 13.4261 115.04 14.35 116.181 14.35C117.34 14.35 118.264 13.4261 118.264 12.3057V6.58565C118.146 3.16541 115.355 0.295555 110.205 0.511777ZM113.37 9.39654L113.547 10.1631L111.325 9.90761V11.9519H110.952V9.90761L108.731 10.1631L108.908 9.39654L106.47 7.72573C107.925 7.60779 107.473 7.27363 106.785 5.89767C108.809 6.50703 108.377 6.25149 108.436 5.13107C110.362 8.07955 109.812 6.07458 109.438 3.85339C110.441 4.67896 110.382 4.62 111.129 2.92953H111.149C111.876 4.62 111.817 4.67896 112.839 3.85339C112.465 6.09424 111.935 8.07955 113.841 5.13107C113.9 6.25149 113.448 6.50703 115.493 5.89767C114.805 7.27363 114.333 7.58813 115.807 7.72573L113.37 9.39654ZM65.1129 1.80911C66.7444 0.433152 71.3243 0.059676 73.4079 1.39632C75.7864 2.63468 77.241 5.36695 76.9265 7.58814C76.8478 12.2861 73.5455 14.35 69.9484 14.1731L67.8451 13.9569V10.2811L69.8304 10.4383C73.8011 10.3401 73.5062 6.25149 72.0713 5.20969C71.3047 4.38412 69.4766 4.01064 68.081 4.69862C67.1965 5.15072 66.705 6.19252 66.764 7.58814L66.7837 7.7847V17.5147C66.7837 18.6155 65.8795 19.5 64.759 19.5C63.6386 19.5 62.7344 18.6155 62.7344 17.5147V7.7847C62.5968 5.56351 63.1669 3.00816 65.1129 1.80911ZM24.6007 10.2811L27.8047 6.91981L27.8441 6.8805C28.7679 5.74042 30.8908 4.18755 30.0063 2.06465C29.4952 0.826283 28.0603 0.551091 25.4853 0.629717H19.49V4.4824H24.8169L21.0036 8.2368C19.7652 9.55379 18.6055 10.6546 18.9986 12.5219C19.2345 13.662 19.9028 13.9175 22.4975 13.9175H30.1635V10.2811H24.6007ZM92.5141 10.2811H86.9316L90.1356 6.91981L90.1553 6.90016L90.175 6.8805C91.0988 5.74042 93.2217 4.18755 92.3372 2.06465C91.8261 0.826283 90.3912 0.551091 87.8162 0.629717H81.8209V4.4824H87.1479L83.3541 8.2368C82.1158 9.55379 80.956 10.6546 81.3492 12.5219C81.5851 13.662 82.2534 13.9175 84.848 13.9175H92.5141V10.2811ZM2.74264 1.78945C4.37414 0.413494 8.95411 0.0400213 11.0377 1.37667C13.3965 2.61503 14.8707 5.34729 14.5562 7.56848C14.4776 12.2664 11.1753 14.3303 7.57815 14.1534L5.4749 13.9372V10.2614L7.46021 10.4187C11.4112 10.3204 11.136 6.23183 9.70106 5.19004C8.93446 4.36446 7.1064 3.99098 5.71078 4.67896C4.82624 5.13106 4.33482 6.17286 4.39379 7.56848L4.41345 7.76505V17.495C4.41345 18.5958 3.50925 19.4803 2.38883 19.4803C1.2684 19.4803 0.364203 18.5958 0.364203 17.495V7.76505C0.226607 5.54386 0.776988 2.96885 2.74264 1.78945ZM50.3705 10.0845V13.78C46.7733 14.1731 44.5914 13.9569 42.9796 12.2664C41.466 10.6546 41.0729 9.35723 41.2695 6.19252C41.7805 2.35949 45.3384 0.433151 47.6775 0.511777C52.6703 0.295555 55.4025 3.08679 55.5205 6.40874V11.9519C55.5205 13.0527 54.6163 13.9372 53.4958 13.9372C52.3754 13.9372 51.4712 13.0527 51.4712 11.9519V6.64462C51.4319 6.19252 51.0388 4.44309 48.5227 4.30549C47.0878 4.26618 45.3384 5.01313 45.1811 6.80188C45.0435 10.2025 47.933 10.8315 50.3705 10.0845Z" fill="#9AA4B2"/>
</svg>