<svg xmlns="http://www.w3.org/2000/svg" width="121" height="30" viewBox="0 0 121 30" fill="none">
  <g clip-path="url(#clip0_235_289408)">
    <path d="M44.4038 15.9098H48.2529C48.7941 15.9098 49.2327 16.3531 49.2327 16.8943C49.2327 17.4402 48.7941 17.8787 48.2529 17.8787H43.6106C43.536 17.8787 43.466 17.9067 43.4146 17.9534L42.015 19.1618C41.8003 19.3484 41.931 19.6983 42.2109 19.6983H48.0196C48.0196 19.6983 48.0243 19.6983 48.0243 19.6937C48.0243 19.689 48.029 19.689 48.029 19.689C48.1036 19.6937 48.1736 19.6983 48.2482 19.6983C49.7879 19.6983 51.0383 18.4433 51.0383 16.8943C51.0383 15.4246 49.9139 14.2162 48.4769 14.0996C48.4769 14.0996 48.4722 14.0996 48.4722 14.0949C48.4722 14.0902 48.4722 14.0902 48.4675 14.0902H44.3244C43.7832 14.0902 43.3447 13.647 43.3447 13.1058C43.3447 12.5599 43.7832 12.1214 44.3244 12.1214H48.9574C49.0321 12.1214 49.1067 12.0934 49.1627 12.042L50.4644 10.8336C50.6697 10.6423 50.5344 10.3018 50.2591 10.3018H44.4038C44.3804 10.3018 44.3524 10.3018 44.3291 10.3018C42.7895 10.3018 41.5391 11.5568 41.5391 13.1058C41.5391 14.6548 42.7895 15.9098 44.3291 15.9098C44.3524 15.9098 44.3758 15.9098 44.4038 15.9098Z" fill="#9AA4B2"/>
    <path d="M66.8086 10.2971C66.6407 10.2971 66.5054 10.4324 66.5054 10.6051V19.3951C66.5054 19.5631 66.6407 19.7031 66.8086 19.7031H73.8537C73.9377 19.7031 74.017 19.6657 74.0777 19.6051L74.9595 18.658C75.1414 18.462 75.0061 18.1401 74.7355 18.1401H68.5862C68.4183 18.1401 68.283 18.0048 68.283 17.8321V10.6004C68.283 10.4324 68.1477 10.2925 67.9797 10.2925H66.8086V10.2971Z" fill="#9AA4B2"/>
    <path fill-rule="evenodd" clip-rule="evenodd" d="M55.527 10.2969C55.527 10.3015 55.527 10.3015 55.527 10.2969C54.6265 10.3389 53.9033 11.062 53.8613 11.9625V17.8739C53.8613 17.8972 53.8613 17.9252 53.8613 17.9485C53.8613 18.8863 54.5985 19.6515 55.527 19.6888H61.9189C62.8427 19.6468 63.5845 18.8816 63.5845 17.9485C63.5845 17.9252 63.5845 17.8972 63.5845 17.8739V11.9672C63.5472 11.0667 62.824 10.3389 61.9235 10.3015H55.527V10.2969ZM56.7214 11.9672C56.7167 11.9672 56.7167 11.9672 56.7214 11.9672C56.1568 11.9905 55.7043 12.4477 55.6809 13.0169V16.7354C55.6809 16.7494 55.6809 16.7681 55.6809 16.7821C55.6809 17.37 56.1428 17.8552 56.7214 17.8785H60.7291C61.3077 17.8552 61.7696 17.37 61.7696 16.7821C61.7696 16.7681 61.7696 16.7494 61.7696 16.7354V13.0169C61.7462 12.4477 61.2937 11.9952 60.7291 11.9672H56.7214Z" fill="#9AA4B2"/>
    <path fill-rule="evenodd" clip-rule="evenodd" d="M85.2005 19.3953C85.2005 19.5633 85.3358 19.7032 85.5037 19.7032H86.6981C86.8661 19.7032 87.0014 19.5679 87.0014 19.3953V12.1216C87.0014 12.0982 87.0014 12.0702 87.0014 12.0469C87.0014 11.1091 86.2689 10.344 85.3544 10.3066H79.2191C79.1958 10.3066 79.1678 10.3066 79.1445 10.3066C78.1927 10.3066 77.4229 11.0858 77.4229 12.0516C77.4229 12.0749 77.4229 12.1029 77.4229 12.1262V19.4C77.4229 19.5679 77.5582 19.7079 77.7261 19.7079H78.9205C79.0885 19.7079 79.2238 19.5726 79.2238 19.4V16.372C79.2238 16.204 79.3591 16.064 79.527 16.064H84.9112C85.0791 16.064 85.2145 16.1993 85.2145 16.372V19.3953H85.2005ZM79.2144 14.3891V12.8774C79.2144 12.2895 79.6857 11.8136 80.2642 11.8136H84.1554C84.7339 11.8136 85.2051 12.2895 85.2051 12.8774V14.3891C85.2051 14.557 85.0698 14.697 84.9019 14.697H79.5177C79.3498 14.697 79.2144 14.5617 79.2144 14.3891Z" fill="#9AA4B2"/>
    <path fill-rule="evenodd" clip-rule="evenodd" d="M110.418 19.703C110.25 19.703 110.115 19.5677 110.115 19.3951V16.3671C110.115 16.1991 109.979 16.0591 109.811 16.0591H104.366C104.198 16.0591 104.063 16.1944 104.063 16.3671V19.3951C104.063 19.563 103.928 19.703 103.76 19.703H102.556C102.388 19.703 102.253 19.5677 102.253 19.3951V12.1214C102.253 12.098 102.253 12.07 102.253 12.0467C102.253 11.0856 103.032 10.3018 103.993 10.3018C104.017 10.3018 104.045 10.3018 104.068 10.3018H110.268C111.192 10.3437 111.934 11.1089 111.934 12.042C111.934 12.0654 111.934 12.0934 111.934 12.1167V19.3904C111.934 19.5584 111.799 19.6983 111.631 19.6983H110.418V19.703ZM104.063 12.8772V14.3888C104.063 14.5568 104.198 14.6968 104.366 14.6968H109.811C109.979 14.6968 110.115 14.5615 110.115 14.3888V12.8772C110.115 12.2893 109.639 11.8134 109.055 11.8134H105.122C104.534 11.8134 104.063 12.2893 104.063 12.8772Z" fill="#9AA4B2"/>
    <path d="M91.4987 10.2969C91.5873 10.2969 91.6713 10.3342 91.7273 10.4042L97.0834 16.7914C97.2654 17.006 97.6153 16.8754 97.6153 16.5908V10.6048C97.6153 10.4368 97.7506 10.2969 97.9186 10.2969H99.113C99.281 10.2969 99.4163 10.4322 99.4163 10.6048V19.3949C99.4163 19.5628 99.281 19.7028 99.113 19.7028H97.6293C97.6247 19.7028 97.62 19.6981 97.62 19.6935C97.62 19.6888 97.62 19.6888 97.6153 19.6841L92.1659 13.3435C91.9839 13.1289 91.634 13.2642 91.634 13.5442V19.3995C91.634 19.5675 91.4987 19.7074 91.3307 19.7074H90.127C89.959 19.7074 89.8237 19.5721 89.8237 19.3995V10.6048C89.8237 10.4368 89.959 10.2969 90.127 10.2969H91.4987Z" fill="#9AA4B2"/>
    <path d="M13.7647 20.0253C13.914 19.876 14.1147 19.792 14.3246 19.792H33.757C34.1115 19.792 34.2888 20.2212 34.0369 20.4685L30.1971 24.3083C30.0478 24.4576 29.8472 24.5416 29.6372 24.5416H10.2049C9.85027 24.5416 9.67298 24.1124 9.92492 23.8651L13.7647 20.0253Z" fill="#9AA4B2"/>
    <path d="M13.7647 5.69227C13.914 5.54297 14.1147 5.45898 14.3246 5.45898H33.757C34.1115 5.45898 34.2888 5.88822 34.0369 6.1355L30.1971 9.97065C30.0478 10.1199 29.8472 10.2039 29.6372 10.2039H10.2049C9.85027 10.2039 9.67298 9.77469 9.92492 9.52741L13.7647 5.69227Z" fill="#9AA4B2"/>
    <path d="M30.1971 12.8119C30.0478 12.6626 29.8472 12.5786 29.6372 12.5786H10.2049C9.85027 12.5786 9.67298 13.0079 9.92492 13.2551L13.7647 17.0903C13.914 17.2396 14.1147 17.3236 14.3246 17.3236H33.757C34.1115 17.3236 34.2888 16.8943 34.0369 16.647L30.1971 12.8119Z" fill="#9AA4B2"/>
  </g>
  <defs>
    <clipPath id="clip0_235_289408">
      <rect width="119.813" height="30" fill="white" transform="translate(0.962402)"/>
    </clipPath>
  </defs>
</svg>