<svg xmlns="http://www.w3.org/2000/svg" width="145" height="26" viewBox="0 0 145 26" fill="none">
  <path fill-rule="evenodd" clip-rule="evenodd" d="M0.736328 26H29.8847V0H0.736328V26ZM19.8576 20.4033H13.0953V8.1607H16.4765V18.3049H19.7405C22.0724 18.3049 23.0052 16.6729 23.0052 12.7082C23.0052 8.62787 21.8388 7.4615 19.6241 7.4615H12.1625V20.4041H8.7814V7.4615H3.76826V5.24595H20.674C24.7544 5.24595 26.6199 7.34432 26.6199 12.591C26.6207 19.5877 23.7052 20.4033 19.8576 20.4033Z" fill="#9AA4B2"/>
  <path fill-rule="evenodd" clip-rule="evenodd" d="M49.0062 16.2734C48.1898 16.5054 47.1406 16.739 46.0914 16.739C42.7103 16.739 40.0283 14.8735 40.0283 11.2595C40.0283 7.76194 42.8267 6.12995 46.0914 6.12995C47.257 6.12995 47.8406 6.24636 48.8898 6.36276V9.16034C48.307 8.92753 47.607 8.69473 46.9078 8.69473C45.2758 8.69473 43.993 9.62751 43.993 11.2595C43.993 13.1251 45.1586 13.9414 46.7914 13.9414C47.6078 13.9414 48.1898 13.8243 49.0062 13.5915V16.2734ZM54.8357 13.3579C54.8357 14.0571 54.4857 14.757 53.6693 14.757C53.0865 14.757 52.8529 14.5235 52.8529 14.0571C52.8529 13.2415 53.6693 13.1251 54.4849 13.1251H54.8349L54.8357 13.3579ZM50.2889 11.2595C51.1053 10.9095 52.0381 10.6767 52.8537 10.6767C53.7865 10.6767 54.8357 10.7931 54.8357 11.7259C54.4857 11.7259 53.9029 11.6095 53.4365 11.6095C51.5709 11.6095 49.4718 12.0751 49.4718 14.4078C49.4718 16.0398 50.871 16.7383 52.2701 16.7383C53.3193 16.7383 54.2521 16.2726 54.7185 15.457H54.8349V16.5047H58.2161V11.8423C58.2161 9.04394 55.6513 8.69473 53.5529 8.69473C52.1537 8.69473 51.4538 8.81113 50.2882 9.16034L50.2889 11.2595ZM59.3832 8.92754H62.8808V10.2103H62.9972C63.3471 9.16111 64.3963 8.69473 65.4455 8.69473C67.4275 8.69473 68.1267 9.74391 68.1267 11.2595V16.5054H64.3963V12.0751C64.3963 11.7251 64.3963 11.0259 63.8135 11.0259C63.1143 11.0259 63.1143 11.7259 63.1143 12.0751V16.5054H59.3832V8.92754ZM74.4234 13.3579C74.4234 14.0571 74.0742 14.757 73.2578 14.757C72.675 14.757 72.4414 14.5235 72.4414 14.0571C72.4414 13.2415 73.2578 13.1251 74.0742 13.1251H74.4234V13.3579ZM69.8759 11.2595C70.6922 10.9095 71.625 10.6767 72.4414 10.6767C73.3734 10.6767 74.4234 10.7931 74.4234 11.7259C74.0742 11.7259 73.4914 11.6095 73.0242 11.6095C71.1586 11.6095 69.0603 12.0751 69.0603 14.4078C69.0603 16.0398 70.4587 16.7383 71.8578 16.7383C72.907 16.7383 73.8406 16.2726 74.3054 15.457H74.4226V16.5047H77.8045V11.8423C77.8045 9.04394 75.239 8.69473 73.1406 8.69473C71.7414 8.69473 71.0415 8.81113 69.8759 9.16034V11.2595ZM84.3332 12.6587C84.3332 13.3586 84.2176 14.175 83.4012 14.175C82.5833 14.175 82.4677 13.3586 82.4677 12.5423C82.4677 11.7259 82.5833 11.0267 83.4012 11.0267C84.2176 11.0259 84.3332 11.7259 84.3332 12.6587ZM87.9487 16.5054V5.54639H84.2176V9.86109C83.6333 9.04471 82.9348 8.69473 81.8857 8.69473C79.5537 8.69473 78.6217 10.4439 78.6217 12.5423C78.6217 14.7578 79.5537 16.739 82.0021 16.739C83.1692 16.739 83.9848 16.2734 84.4504 15.107H84.5676V16.5054H87.9487ZM94.2439 13.3579C94.2439 14.0571 93.8947 14.757 93.1947 14.757C92.6119 14.757 92.2627 14.5235 92.2627 14.0571C92.2627 13.2415 93.1947 13.1251 93.8947 13.1251H94.2439V13.3579ZM89.8128 11.2595C90.5128 10.9095 91.4463 10.6767 92.3783 10.6767C93.3119 10.6767 94.2439 10.7931 94.2439 11.7259C94.0103 11.7259 93.4275 11.6095 92.8455 11.6095C90.9799 11.6095 88.8808 12.0751 88.8808 14.4078C88.8808 16.0398 90.2792 16.7383 91.6783 16.7383C92.7275 16.7383 93.6611 16.2726 94.2439 15.457V16.5047H97.6258V11.8423C97.6258 9.04394 95.0603 8.69473 92.9611 8.69473C91.5627 8.69473 90.862 8.81113 89.8128 9.16034V11.2595ZM112.899 9.39393H110.1V16.6226H106.137V9.39393H102.755V6.36276H112.899V9.39393ZM116.864 8.92754V10.6767C117.329 9.62751 118.029 8.69473 119.194 8.69473C119.428 8.69473 119.66 8.81113 119.894 8.81113V11.8423C119.66 11.8423 119.311 11.7259 118.962 11.7259C118.028 11.7259 117.096 12.6587 117.096 13.8243V16.6234H113.365V8.92831L116.864 8.92754ZM129.455 16.6226H125.958V15.2242H125.841C125.491 16.3898 124.442 16.739 123.392 16.739C121.411 16.739 120.71 15.6898 120.71 14.2907V8.92754H124.441V13.3586C124.441 13.8243 124.441 14.4086 125.024 14.4086C125.724 14.4086 125.724 13.8243 125.724 13.3586V8.92754H129.455V16.6226ZM130.505 14.1743C131.203 14.5235 132.37 14.8727 133.302 14.8727C133.885 14.8727 134.585 14.757 134.585 14.2899C134.585 13.3579 130.387 14.2899 130.387 11.3751C130.387 9.15957 132.836 8.69318 134.585 8.69318C135.518 8.69318 136.45 8.92599 137.382 9.04317V11.1415C136.566 10.9087 135.868 10.6752 134.934 10.6752C134.351 10.6752 133.768 10.7916 133.768 11.258C133.768 11.9572 137.966 11.1415 137.966 13.9399C137.966 16.1547 135.518 16.7375 133.768 16.7375C132.719 16.7375 131.554 16.6218 130.505 16.2719V14.1743ZM139.599 8.92754V7.17837L143.213 6.01278V8.92754H144.963V11.1431H143.213V13.2422C143.213 13.9422 143.562 14.2914 144.029 14.2914C144.38 14.2914 144.729 14.2914 144.963 14.1758V16.3906C144.129 16.629 143.265 16.7466 142.397 16.7398C140.532 16.7398 139.6 15.8078 139.6 13.825V11.1439H138.2V8.92831L139.599 8.92754Z" fill="#9AA4B2"/>
</svg>