<svg xmlns="http://www.w3.org/2000/svg" width="116" height="24" viewBox="0 0 116 24" fill="none">
  <path d="M10.4533 11.4839C10.9695 12.3871 9.80819 12.6452 9.29207 12.7097C8.51788 12.7742 8.32433 12.3226 8.45336 11.742C8.51788 11.5484 8.64691 11.3549 8.77594 11.2258C8.90497 11.0968 9.16304 10.9678 9.35658 10.9678C9.55013 10.9678 9.80819 10.9678 9.93722 11.0968C10.1953 11.1613 10.3243 11.2904 10.4533 11.4839Z" fill="#9AA4B2"/>
  <path d="M13.5502 9.87109C12.9695 14.3872 20.8404 13.4195 20.7114 16.9678C21.4856 15.9356 21.8082 13.2259 19.5501 11.8066C17.4856 10.5163 14.8405 11.2259 13.5502 9.87109Z" fill="#9AA4B2"/>
  <path d="M18.1305 8.12903C18.066 8.06451 18.0015 8.06452 18.0015 8C18.0015 8.06452 18.066 8.12903 18.1305 8.12903Z" fill="#9AA4B2"/>
  <path d="M19.9372 11.4196C19.8727 11.2906 19.8082 11.1616 19.6792 11.0325C19.4211 10.6454 19.034 10.3874 18.5824 10.3228C18.3244 10.2583 18.0018 10.1938 17.6792 10.1938C17.3566 10.1938 17.0986 10.1293 16.776 10.1293C16.1308 10.0648 15.5502 10.0003 14.905 9.87124C14.776 9.80672 14.5824 9.80672 14.4534 9.74221C14.3889 9.74221 14.3244 9.67769 14.1953 9.67769C14.1308 9.61318 14.0663 9.61317 13.9373 9.54866C13.6147 9.41963 13.3566 9.16157 13.1631 8.96802C12.7115 8.51641 12.3244 8.00028 11.9373 7.54867C11.5502 7.03255 11.2276 6.58094 10.776 6.12933C10.3889 5.67772 9.8728 5.29062 9.35667 5.03256C8.84055 4.7745 8.19539 4.58095 7.61475 4.51643C8.2599 4.45192 8.90506 4.51643 9.4857 4.7745C10.0663 5.03256 10.647 5.35514 11.0986 5.80675C11.4212 6.06481 11.6792 6.38739 11.9373 6.70997C13.9373 6.32287 15.4857 6.64545 16.7115 7.35513C17.0986 7.54867 17.4857 7.80673 17.8082 8.12931C17.8727 8.19383 17.9373 8.19383 17.9373 8.25834C18.1953 8.51641 18.4534 8.77447 18.6469 9.03253C19.5502 9.87124 19.9372 10.839 19.9372 11.4196Z" fill="#9AA4B2"/>
  <path d="M7.80817 5.03223C8.32429 5.09674 8.84042 5.29029 9.163 5.67738C9.48558 6.06448 9.61461 6.58061 9.74364 7.03222C9.80816 7.41931 9.87267 7.8064 10.0017 8.12898C10.0662 8.32253 10.1952 8.45156 10.2598 8.58059C10.3243 8.70962 10.4533 8.83866 10.5178 8.96769V9.0322V9.09672C10.3243 9.29026 9.87267 9.09672 9.67912 8.96769C9.35655 8.83866 9.09848 8.58059 8.84042 8.32253C8.13075 7.54834 7.74365 6.38706 7.74365 5.35481C7.74365 5.29029 7.80817 5.16126 7.80817 5.03223Z" fill="#9AA4B2"/>
  <path d="M16.1952 14.0645C15.0984 17.0967 20.0661 19.1612 18.1952 22.258C20.0661 21.4838 20.9693 19.0967 20.1952 17.2257C19.55 15.5483 17.4855 14.9032 16.1952 14.0645Z" fill="#9AA4B2"/>
  <path d="M9.6792 18.0001C10.0018 17.8066 10.3244 17.613 10.6469 17.4195C10.9695 17.2904 11.3566 17.1614 11.7437 17.0969C12.4534 16.9679 13.2276 16.9033 13.8082 16.6453C14.1308 16.5163 14.3888 16.3872 14.6469 16.1292C14.905 15.9356 15.034 15.6775 15.163 15.355C15.2921 15.0324 15.2921 14.7098 15.2921 14.3872C15.2921 14.0001 15.163 13.6776 15.034 13.355C15.2921 13.613 15.4856 14.0001 15.6146 14.3872C15.7437 14.7743 15.7437 15.1614 15.6792 15.5485C15.6146 15.9356 15.3566 16.3227 15.0985 16.6453C14.8405 16.9033 14.4534 17.1614 14.0663 17.2904C13.6792 17.4195 13.2921 17.484 12.905 17.5485C12.5179 17.5485 12.1953 17.613 11.8082 17.613C11.0985 17.613 10.3889 17.7421 9.6792 18.0001Z" fill="#9AA4B2"/>
  <path d="M16.647 23.3551C16.518 23.4196 16.4535 23.5487 16.3245 23.6132C16.1954 23.6777 16.0664 23.7422 15.9374 23.8067C15.6793 23.9357 15.3567 24.0003 15.0341 24.0003C14.1954 24.0003 13.6148 23.3551 13.2922 22.6454C13.0342 22.1938 12.9051 21.6777 12.6471 21.2261C12.26 20.5809 11.5503 20.0648 10.7761 20.1293C10.4535 20.1938 10.1309 20.3229 10.0019 20.5809C9.55031 21.2906 10.1955 22.3229 11.0987 22.1938C11.1632 22.1938 11.2277 22.1938 11.2922 22.1293C11.3567 22.1293 11.4213 22.0648 11.4858 22.0003C11.6148 21.8712 11.6793 21.7422 11.7438 21.6132C11.8084 21.4841 11.8084 21.2906 11.8084 21.0971C11.7438 20.9035 11.6793 20.7745 11.5503 20.71C11.7438 20.7745 11.8729 20.9035 11.9374 21.0971C11.8729 21.4196 11.8729 21.6132 11.8729 21.8067C11.8084 22.0003 11.7438 22.1938 11.6148 22.3229C11.5503 22.3874 11.4858 22.4519 11.3567 22.5164C11.2922 22.5809 11.1632 22.6454 11.0987 22.6454C10.9051 22.7099 10.7116 22.7099 10.518 22.7099C10.26 22.6454 9.9374 22.5809 9.74385 22.3874C9.48579 22.1938 9.29224 21.8712 9.03418 21.6777C8.77612 21.3551 8.45354 21.1616 8.06644 20.968C7.80838 20.839 7.55032 20.7745 7.29225 20.71C7.16322 20.71 7.03419 20.6454 6.90516 20.6454C6.84064 20.6454 6.51807 20.5809 6.51807 20.5809C6.96968 20.1938 7.42129 19.8713 7.8729 19.5487C8.38902 19.2261 8.90515 19.0325 9.48579 18.839C10.0664 18.6455 10.6471 18.6455 11.2922 18.71C11.6148 18.7745 11.8729 18.839 12.1954 18.968C12.518 19.0971 12.7761 19.2906 13.0342 19.4842C13.2922 19.7422 13.4858 20.0003 13.6148 20.2584C13.7438 20.5164 13.8083 20.839 13.8729 21.1616C14.0664 22.0648 14.0019 23.4841 15.1632 23.6777C15.2277 23.6777 15.2922 23.6777 15.3567 23.6777H15.5503C15.6793 23.6777 15.8083 23.6777 15.9374 23.6132C16.1309 23.6132 16.389 23.4841 16.647 23.3551Z" fill="#9AA4B2"/>
  <path d="M8.71131 9.61284C8.6468 9.80639 8.58228 9.93542 8.51777 10.0645C8.32422 10.3225 8.06616 10.5161 7.80809 10.6451C7.55003 10.7741 7.29197 10.8386 6.96939 10.8386C6.90487 10.8386 6.84036 10.8386 6.77584 10.8386C6.58229 10.8386 6.45326 10.9032 6.25971 11.0322C6.13068 11.1612 6.00165 11.2903 6.00165 11.4838C6.00165 11.5483 5.93714 11.6773 5.93714 11.7419C5.93714 11.9999 5.87262 12.1935 5.87262 12.5161C5.80811 13.0322 5.67907 13.4838 5.48553 13.9354C5.22746 14.516 4.90488 15.0322 4.9694 15.6773C5.03392 16.1289 5.22746 16.4515 5.55004 16.7096C6.06617 17.2902 7.29197 17.5483 7.0339 18.9031C6.84036 19.7418 5.48553 20.5805 3.61457 20.9031C3.80812 20.9031 3.35651 20.1289 3.35651 20.0644C3.16296 19.7418 2.9049 19.4192 2.77587 19.0967C2.45329 18.4515 2.32426 17.6128 2.45329 16.9031C2.58232 16.1289 3.16296 15.5483 3.61457 14.9031C4.19521 14.1935 4.77585 13.2902 4.90489 12.3225C4.90489 12.129 4.9694 11.8064 5.03392 11.5483C5.09843 11.2257 5.16295 10.9677 5.29198 10.6451C5.35649 10.4515 5.48553 10.3225 5.67907 10.129C5.74359 10.0645 5.80811 9.93542 5.80811 9.87091C5.80811 9.74187 5.8081 9.67736 5.74359 9.54833L2.71135 4.06449L7.09842 9.48381C7.16294 9.54833 7.22745 9.61284 7.29197 9.61284C7.35648 9.67736 7.421 9.67736 7.55003 9.67736C7.61454 9.67736 7.67906 9.67736 7.80809 9.61284C7.87261 9.54833 7.93712 9.54833 8.00164 9.48381C8.06616 9.4193 8.06616 9.35478 8.06616 9.22575C8.06616 9.16123 8.06616 9.0322 8.00164 8.96769C7.74358 8.58059 7.421 8.25801 7.09842 7.87092L6.00165 6.51609L3.80812 3.80643L0.775879 0L4.06618 3.54837L6.38875 6.12899L7.55003 7.41931C7.93712 7.87092 8.32422 8.25801 8.71131 8.77414L8.77583 8.83866V8.96769C8.77583 9.22575 8.77583 9.4193 8.71131 9.61284Z" fill="#9AA4B2"/>
  <path d="M9.74373 22.3228C9.55018 22.1293 9.35663 21.9357 9.16309 21.7422C9.35663 22.0003 9.48567 22.1938 9.74373 22.3228Z" fill="#9AA4B2"/>
  <path fill-rule="evenodd" clip-rule="evenodd" d="M66.5818 7.74235C64.4528 8.25848 63.4851 9.93589 64.0657 11.9359C64.3238 12.7746 65.098 13.6778 66.2593 14.323C68.2593 15.4842 68.9044 15.9359 69.227 16.6455C69.4851 17.2262 69.5496 17.4197 69.4205 18.0004C69.0979 19.2907 68.1947 19.9358 66.9044 19.9358C65.6141 19.9358 64.7109 19.2262 64.4528 18.0004C64.3883 17.4842 64.2593 17.3552 64.0657 17.3552C63.8077 17.3552 63.7432 17.4842 63.7432 18.71V20.0649L64.5819 20.3229C65.9367 20.7745 67.8076 20.71 68.9044 20.1939C71.0979 19.1616 71.9366 17.1616 70.9689 15.2907C70.5818 14.581 69.6786 13.8068 68.1302 12.8391C66.4528 11.8068 65.7431 11.0972 65.6141 10.3875C65.4206 9.22621 66.4528 8.32299 67.8722 8.32299C68.9689 8.32299 69.4205 8.58106 69.8076 9.41976C70.0657 9.93589 70.1947 10.1294 70.5173 10.1294C70.8399 10.1294 70.9044 10.0649 70.7754 9.74234C70.7108 9.54879 70.6463 9.03267 70.6463 8.64557C70.6463 8.12945 70.5818 7.87138 70.3883 7.80687C69.9367 7.61332 67.1625 7.5488 66.5818 7.74235ZM24.0015 8.19396C24.0015 8.45203 24.1305 8.51654 24.3886 8.51654C25.1627 8.51654 25.2273 8.71009 25.2918 13.4197C25.3563 17.4842 25.4208 17.8068 25.7434 18.452C26.195 19.2907 26.8402 19.8713 27.8079 20.3229C28.4531 20.6455 28.9047 20.71 30.2595 20.71C31.6788 20.71 32.0014 20.6455 32.7756 20.2584C33.2917 20.0003 33.9369 19.5487 34.1949 19.2262C35.0982 18.1294 35.2272 17.5487 35.2917 13.0326C35.4207 8.64557 35.4207 8.58106 36.1304 8.58106C36.324 8.58106 36.3885 8.45202 36.3885 8.25848C36.3885 7.9359 36.2595 7.9359 34.453 7.9359C32.6466 7.9359 32.5175 7.9359 32.5175 8.25848C32.5175 8.51654 32.6466 8.58106 33.0337 8.64557C33.8724 8.71009 33.9369 9.03267 33.9369 13.0326C33.9369 17.0971 33.8079 17.8713 32.9046 18.71C32.1304 19.4842 31.4853 19.7423 30.3885 19.7423C28.8401 19.7423 27.6789 19.0326 27.3563 17.7423C27.2273 17.2907 27.1627 15.7423 27.2273 12.9681L27.2918 8.83912L27.8724 8.64557C28.195 8.51654 28.453 8.32299 28.5176 8.19396C28.5821 7.9359 28.324 7.9359 26.324 7.9359C24.1305 7.87138 24.0015 7.87138 24.0015 8.19396ZM39.0336 8.19396C39.0336 8.45203 39.1627 8.51654 39.4852 8.51654C40.3239 8.51654 40.7756 8.83912 40.9691 9.54879C41.0981 9.93589 41.0981 11.8068 41.0981 14.452C41.0336 19.2262 40.9691 19.5487 40.0014 19.7423C39.6788 19.8068 39.5498 19.9358 39.5498 20.1294C39.5498 20.3874 39.6788 20.4519 41.8078 20.4519C43.8723 20.4519 44.0659 20.452 44.0659 20.1939C44.0659 20.0003 43.8723 19.8713 43.3562 19.7423C42.711 19.5487 42.6465 19.4842 42.453 18.9681C42.1949 18.1939 42.1949 10.9036 42.3884 10.9681C42.453 10.9681 43.0981 11.6133 43.8078 12.452C44.5175 13.2907 46.3884 15.4197 48.0658 17.1616C50.6465 19.9358 51.0981 20.4519 51.4852 20.4519H51.9368L52.0013 14.7746C52.0658 10.7101 52.1303 9.03267 52.2593 8.90363C52.3884 8.7746 52.711 8.64557 52.969 8.58106C53.2916 8.51654 53.4851 8.38751 53.4851 8.25848C53.4851 8.06493 53.0981 8.00042 51.2916 8.00042C49.1626 7.9359 49.0981 7.9359 49.0981 8.25848C49.0981 8.51654 49.2271 8.58106 49.4852 8.58106C49.6787 8.58106 50.0658 8.7746 50.3239 8.96815L50.7755 9.35524L50.84 13.2262C50.84 15.4197 50.84 17.0971 50.7755 17.0971C50.711 17.0971 50.1948 16.581 49.6787 16.0004C49.1626 15.4197 47.6787 13.7423 46.3884 12.323C45.0981 10.9036 43.6788 9.35525 43.2271 8.83912L42.453 7.9359H40.7756C39.0981 7.87138 39.0336 7.87138 39.0336 8.19396ZM55.9368 8.19396C55.9368 8.45203 56.0658 8.51654 56.3884 8.51654C56.6464 8.51654 56.969 8.64557 57.1625 8.7746C57.4851 8.96815 57.4851 9.29073 57.5496 13.7423C57.6142 19.2907 57.5496 19.6132 56.5819 19.7423C56.1303 19.8068 55.9368 19.9358 55.9368 20.1294C55.9368 20.3874 56.1303 20.4519 58.3883 20.4519C60.7109 20.4519 60.8399 20.4519 60.8399 20.1294C60.8399 19.8713 60.7109 19.8068 60.4529 19.8068C60.2593 19.8068 59.9367 19.6778 59.7432 19.5487C59.4206 19.3552 59.4206 19.0326 59.3561 14.2584C59.2916 9.35524 59.2916 9.1617 59.6141 8.83912C59.8077 8.64557 60.1303 8.51654 60.3238 8.51654C60.6464 8.51654 60.7109 8.45203 60.7109 8.19396C60.7109 7.87138 60.5819 7.87138 58.2593 7.87138C56.0658 7.87138 55.9368 7.87138 55.9368 8.19396ZM72.9044 8.19396C72.9689 8.38751 73.0979 8.51654 73.356 8.51654C73.5495 8.51654 73.8721 8.71009 74.0657 8.90363C74.2592 9.09718 75.356 11.7423 76.5818 14.9036L78.7108 20.5165L79.2914 20.581L79.8721 20.6455L81.3559 16.6455C82.1946 14.452 82.9688 12.452 83.0334 12.2585C83.2269 11.8714 83.2269 11.9359 83.743 13.2262C84.0011 14.0004 84.7753 15.9359 85.4204 17.6133L86.5817 20.6455H87.0978C87.3559 20.6455 87.614 20.581 87.6785 20.4519C87.743 20.3229 88.4527 18.452 89.3559 16.2584C90.1946 14.0649 91.1623 11.6133 91.4849 10.8391C92.1946 9.03267 92.3236 8.83912 92.8397 8.64557C93.0978 8.58106 93.2913 8.38751 93.2913 8.25848C93.2913 8.06493 92.9688 8.00042 91.3559 8.00042C89.5494 8.00042 89.4204 8.00042 89.4204 8.32299C89.4204 8.58106 89.5494 8.64557 89.8075 8.64557C90.4527 8.64557 90.7107 8.83912 90.7107 9.22621C90.7107 9.54879 87.614 17.8713 87.4204 18.0649C87.2914 18.1939 84.5172 10.452 84.4527 9.67782C84.3237 8.96815 84.6462 8.64557 85.3559 8.64557C85.614 8.64557 85.743 8.58106 85.743 8.32299C85.743 8.00042 85.614 8.00042 83.2269 8.00042C80.8398 8.00042 80.7108 8.00042 80.7108 8.32299C80.7108 8.51654 80.8398 8.64557 80.9688 8.64557C81.485 8.64557 82.1301 9.1617 82.3237 9.61331C82.5817 10.323 82.3882 11.0327 80.9043 14.9036L79.6785 18.1939L79.4205 17.5487C79.2914 17.2262 78.5173 15.1617 77.7431 13.0326C76.1947 8.83912 76.1947 8.64557 77.2269 8.64557C77.614 8.64557 77.6785 8.58106 77.6785 8.32299C77.6785 8.00042 77.5495 8.00042 75.2915 8.00042C72.8399 7.87138 72.7754 7.87138 72.9044 8.19396ZM105.549 8.32299C105.549 8.32299 105.549 8.51654 105.549 8.58106C105.549 8.64557 105.743 8.64557 105.743 8.64557C105.872 8.64557 105.936 8.71009 106.065 8.71009C106.582 8.83912 106.904 8.90363 107.033 9.22621C107.098 9.41976 107.162 10.1939 107.162 14.2584C107.162 18.5165 107.162 19.0326 107.033 19.2907C106.904 19.6132 106.646 19.8068 106.001 20.0003C106.001 20.0003 105.743 20.0649 105.678 20.1294C105.614 20.1939 105.614 20.3229 105.614 20.3229C105.614 20.3229 105.614 20.452 105.678 20.5165C105.743 20.581 105.936 20.581 105.936 20.581H107.549H110.259C110.259 20.581 110.388 20.581 110.453 20.5165C110.517 20.452 110.517 20.3229 110.517 20.3229C110.517 20.3229 110.517 20.1939 110.453 20.1294C110.388 20.0649 110.13 20.0003 110.13 20.0003C109.549 19.8713 109.227 19.6778 109.098 19.3552C108.969 19.0971 108.969 18.5165 108.969 17.1616V15.2262C109.033 15.2907 109.098 15.2907 109.162 15.3552C109.485 15.5488 109.872 15.8713 111.291 15.8713C113.033 15.9358 114.065 15.1617 114.711 14.2584C115.356 13.3552 115.549 11.9359 115.098 10.3875C114.646 8.90363 113.291 7.9359 111.42 7.87138C110.453 7.80687 108.969 7.87138 108.194 7.9359H108.001C107.291 7.9359 106.388 8.06493 105.936 8.06493C105.807 8.06493 105.807 8.06493 105.743 8.12945C105.549 8.25848 105.549 8.32299 105.549 8.32299ZM112.711 14.2584C113.42 13.6133 113.42 12.581 113.42 11.8714C113.356 10.8391 112.904 8.83912 110.582 8.83912C110.001 8.83912 108.904 8.90363 108.84 9.67782C108.775 9.80685 108.775 10.7746 108.775 12.1939V14.5165L109.033 14.6455C109.162 14.7101 109.356 14.7746 109.614 14.8391C110.582 15.0971 112.001 14.9036 112.711 14.2584ZM97.872 8.06493C98.0655 8.00041 98.1945 7.9359 98.1945 7.9359C98.1945 7.9359 98.4526 7.80687 98.5171 7.9359C98.5171 8.00041 98.6461 8.19396 98.9042 8.83912C98.9687 8.96815 99.0332 9.09718 99.0332 9.22621C99.3558 10.1294 99.872 11.4197 100.13 12.1294C100.388 12.8391 100.904 14.1294 101.291 15.1617C101.678 16.1294 102.13 17.3552 102.388 17.9358C102.582 18.5165 102.904 19.0326 102.969 19.1616C103.033 19.2261 103.033 19.2907 103.098 19.3552C103.291 19.6132 103.485 20.0003 103.936 20.0649C103.936 20.0649 104.259 20.1294 104.324 20.1939C104.388 20.2584 104.388 20.3229 104.388 20.3229V20.5165C104.388 20.5165 104.388 20.581 104.324 20.581C104.324 20.6455 104.195 20.581 104.195 20.581H101.485H99.5494C99.5494 20.581 99.4849 20.581 99.4203 20.581C99.3558 20.581 99.3558 20.4519 99.3558 20.4519V20.3229C99.3558 20.3229 99.3558 20.1939 99.4203 20.1294C99.4849 20.0649 99.8074 20.0003 99.8074 20.0003C100.388 19.9358 100.646 19.4842 100.711 19.2262V19.1616C100.84 18.9036 100.775 18.71 100.195 17.3552C99.8074 16.452 99.6784 16.1939 99.6139 16.1294C99.5494 16.1294 98.5171 16.1294 97.4204 16.1294H95.2913L95.1623 16.452C94.7752 17.4842 94.4526 18.452 94.4526 18.71C94.3236 19.2262 94.5172 19.8713 95.2913 20.0003C95.2913 20.0003 95.6139 20.0649 95.6784 20.1294C95.7429 20.1939 95.8075 20.3229 95.8075 20.3229V20.4519C95.8075 20.4519 95.8075 20.5165 95.7429 20.581C95.6784 20.6455 95.5494 20.581 95.5494 20.581H93.5494H91.6139C91.6139 20.581 91.5494 20.581 91.4849 20.5165C91.4204 20.452 91.4204 20.3874 91.4204 20.3874V20.2584C91.4204 20.2584 91.4204 20.1939 91.5494 20.0649C91.6785 19.9358 91.9365 19.9358 91.9365 19.9358C92.4526 19.8713 92.7752 19.2907 92.9688 18.9681C92.9688 18.9681 92.9688 18.9036 93.0333 18.9036C93.0978 18.7745 93.4204 18.0649 93.743 17.2907C94.0655 16.5165 94.3881 15.6133 94.5172 15.3552C94.9042 14.3875 95.2913 13.4843 95.872 12.0649C96.1946 11.2907 96.6462 10.1294 96.9042 9.48428L97.3558 8.32299L97.872 8.06493ZM97.7429 10.8391C97.872 11.0972 98.001 11.4843 98.0655 11.6778C98.13 11.8714 98.3881 12.452 98.5816 12.9681C98.7752 13.4843 99.0332 14.0649 99.1623 14.323C99.2913 14.581 99.3558 14.7746 99.3558 14.7746C99.3558 14.7746 98.5816 14.7746 97.6139 14.7746C96.5171 14.7746 95.872 14.7746 95.872 14.71C95.872 14.71 95.9365 14.581 95.9365 14.452C96.001 14.2584 96.3881 13.2262 97.1623 11.0327C97.2913 10.7101 97.4204 10.3875 97.4204 10.323C97.4849 10.323 97.5494 10.3875 97.7429 10.8391Z" fill="#9AA4B2"/>
</svg>